<svg width="38" height="38" viewBox="0 0 38 38" fill="none" xmlns="http://www.w3.org/2000/svg">
<path fill-rule="evenodd" clip-rule="evenodd" d="M26.8306 1.83059C29.2715 -0.610206 33.2288 -0.610185 35.6694 1.83059L36.0269 2.18802C38.4677 4.62879 38.4677 8.58609 36.0269 11.0269L32.4075 14.6463L11.8899 35.164C11.6229 35.4309 11.2883 35.6203 10.922 35.7119L2.58867 37.7953C1.87871 37.9728 1.12769 37.7646 0.610233 37.2474C0.0927752 36.7299 -0.115246 35.9788 0.0622542 35.2688L2.14559 26.9355C2.23717 26.5692 2.42659 26.2346 2.69357 25.9676L23.331 5.33017L26.8306 1.83059ZM32.7231 4.77686C31.9096 3.96327 30.5904 3.96327 29.7769 4.77686L27.7225 6.83127L30.9629 10.1983L33.0806 8.08058C33.8942 7.267 33.8942 5.9479 33.0806 5.13429L32.7231 4.77686ZM28.016 13.1451L24.7756 9.77809L6.0479 28.5059L4.94665 32.9109L9.35161 31.8096L28.016 13.1451Z" fill="black"/>
</svg>
