<svg width="108" height="108" viewBox="0 0 108 108" fill="none" xmlns="http://www.w3.org/2000/svg">
<g filter="url(#filter0_d_49_419)">
<rect x="4" width="100" height="100" rx="13" fill="white"/>
<path d="M99.8333 16.6667C99.8333 9.76315 94.2371 4.16669 87.3333 4.16669H70.6667C68.3654 4.16669 66.5 6.03219 66.5 8.33335C66.5 10.6345 68.3654 12.5 70.6667 12.5H87.3333C89.6346 12.5 91.5 14.3655 91.5 16.6667V33.3334C91.5 35.6345 93.3654 37.5 95.6667 37.5C97.9679 37.5 99.8333 35.6345 99.8333 33.3334V16.6667Z" fill="black"/>
<path d="M99.8333 66.6667C99.8333 64.3654 97.9679 62.5 95.6667 62.5C93.3654 62.5 91.5 64.3654 91.5 66.6667V83.3333C91.5 85.6346 89.6346 87.5 87.3333 87.5H70.6667C68.3654 87.5 66.5 89.3654 66.5 91.6667C66.5 93.9679 68.3654 95.8333 70.6667 95.8333H87.3333C94.2371 95.8333 99.8333 90.2371 99.8333 83.3333V66.6667Z" fill="black"/>
<path d="M20.6667 87.5C18.3656 87.5 16.5001 85.6346 16.5001 83.3333V66.6667C16.5001 64.3654 14.6346 62.5 12.3334 62.5C10.0322 62.5 8.16675 64.3654 8.16675 66.6667V83.3333C8.16675 90.2371 13.7632 95.8333 20.6667 95.8333H37.3334C39.6346 95.8333 41.5001 93.9679 41.5001 91.6667C41.5001 89.3654 39.6346 87.5 37.3334 87.5H20.6667Z" fill="black"/>
<path d="M8.16675 33.3334C8.16675 35.6345 10.0322 37.5 12.3334 37.5C14.6346 37.5 16.5001 35.6345 16.5001 33.3334V16.6667C16.5001 14.3655 18.3656 12.5 20.6667 12.5H37.3334C39.6346 12.5 41.5001 10.6345 41.5001 8.33335C41.5001 6.03219 39.6346 4.16669 37.3334 4.16669H20.6667C13.7632 4.16669 8.16675 9.76315 8.16675 16.6667V33.3334Z" fill="black"/>
<path fill-rule="evenodd" clip-rule="evenodd" d="M49.8335 25C49.8335 22.6989 47.9681 20.8334 45.6668 20.8334H29.0002C26.699 20.8334 24.8335 22.6989 24.8335 25V41.6667C24.8335 43.968 26.699 45.8334 29.0002 45.8334H45.6668C47.9681 45.8334 49.8335 43.968 49.8335 41.6667V25ZM41.5002 31.25C41.5002 30.0995 40.5674 29.1667 39.4168 29.1667H35.2502C34.0996 29.1667 33.1668 30.0995 33.1668 31.25V35.4167C33.1668 36.5673 34.0996 37.5 35.2502 37.5H39.4168C40.5674 37.5 41.5002 36.5673 41.5002 35.4167V31.25Z" fill="black"/>
<path fill-rule="evenodd" clip-rule="evenodd" d="M79.0001 54.1667C81.3013 54.1667 83.1667 56.0321 83.1667 58.3334V75C83.1667 77.3013 81.3013 79.1667 79.0001 79.1667H62.3334C60.0322 79.1667 58.1667 77.3013 58.1667 75V58.3334C58.1667 56.0321 60.0322 54.1667 62.3334 54.1667H79.0001ZM66.5001 64.5834C66.5001 63.4329 67.433 62.5 68.5834 62.5H72.7501C73.9005 62.5 74.8334 63.4329 74.8334 64.5834V68.75C74.8334 69.9004 73.9005 70.8334 72.7501 70.8334H68.5834C67.433 70.8334 66.5001 69.9004 66.5001 68.75V64.5834Z" fill="black"/>
<path d="M62.3334 20.8334C60.0322 20.8334 58.1667 22.6989 58.1667 25C58.1667 27.3012 60.0322 29.1667 62.3334 29.1667H72.7501C73.9005 29.1667 74.8334 30.0995 74.8334 31.25V41.6667C74.8334 43.968 76.6988 45.8334 79.0001 45.8334C81.3013 45.8334 83.1667 43.968 83.1667 41.6667V25C83.1667 22.6989 81.3013 20.8334 79.0001 20.8334H62.3334Z" fill="black"/>
<path d="M62.3334 33.3334C60.0322 33.3334 58.1667 35.1988 58.1667 37.5V41.6667C58.1667 43.968 60.0322 45.8334 62.3334 45.8334C64.6347 45.8334 66.5001 43.968 66.5001 41.6667V37.5C66.5001 35.1989 64.6347 33.3334 62.3334 33.3334Z" fill="black"/>
<path d="M29.0002 54.1667C26.699 54.1667 24.8335 56.0321 24.8335 58.3334V66.6667C24.8335 68.9679 26.699 70.8334 29.0002 70.8334C31.3014 70.8334 33.1668 68.9679 33.1668 66.6667V64.5834C33.1668 63.4329 34.0996 62.5 35.2502 62.5H45.6668C47.9681 62.5 49.8335 60.6346 49.8335 58.3334C49.8335 56.0321 47.9681 54.1667 45.6668 54.1667H29.0002Z" fill="black"/>
<path d="M45.6667 70.8334C43.3655 70.8334 41.5 72.6988 41.5 75C41.5 77.3013 43.3655 79.1667 45.6667 79.1667C47.9679 79.1667 49.8333 77.3013 49.8333 75C49.8333 72.6988 47.9679 70.8334 45.6667 70.8334Z" fill="black"/>
</g>
<defs>
<filter id="filter0_d_49_419" x="0" y="0" width="108" height="108" filterUnits="userSpaceOnUse" color-interpolation-filters="sRGB">
<feFlood flood-opacity="0" result="BackgroundImageFix"/>
<feColorMatrix in="SourceAlpha" type="matrix" values="0 0 0 0 0 0 0 0 0 0 0 0 0 0 0 0 0 0 127 0" result="hardAlpha"/>
<feOffset dy="4"/>
<feGaussianBlur stdDeviation="2"/>
<feComposite in2="hardAlpha" operator="out"/>
<feColorMatrix type="matrix" values="0 0 0 0 0 0 0 0 0 0 0 0 0 0 0 0 0 0 0.25 0"/>
<feBlend mode="normal" in2="BackgroundImageFix" result="effect1_dropShadow_49_419"/>
<feBlend mode="normal" in="SourceGraphic" in2="effect1_dropShadow_49_419" result="shape"/>
</filter>
</defs>
</svg>
